<mxfile host="app.diagrams.net" agent="Mozilla/5.0 (Macintosh; Intel Mac OS X 10.15; rv:133.0) Gecko/20100101 Firefox/133.0" version="25.0.3">
  <diagram name="Page-1" id="EmP5uud1C1Mjg1OYiEIC">
    <mxGraphModel dx="1209" dy="998" grid="1" gridSize="10" guides="1" tooltips="1" connect="1" arrows="1" fold="1" page="1" pageScale="1" pageWidth="827" pageHeight="1169" math="0" shadow="0">
      <root>
        <mxCell id="0" />
        <mxCell id="1" parent="0" />
        <mxCell id="9Ri08BBr-EwWfyPE7lYP-1" value="Cliente" style="swimlane;fontStyle=2;align=center;verticalAlign=top;childLayout=stackLayout;horizontal=1;startSize=26;horizontalStack=0;resizeParent=1;resizeLast=0;collapsible=1;marginBottom=0;rounded=0;shadow=0;strokeWidth=1;" parent="1" vertex="1">
          <mxGeometry x="114" y="1369" width="160" height="210" as="geometry">
            <mxRectangle x="230" y="140" width="160" height="26" as="alternateBounds" />
          </mxGeometry>
        </mxCell>
        <mxCell id="9Ri08BBr-EwWfyPE7lYP-2" value="nombre" style="text;align=left;verticalAlign=top;spacingLeft=4;spacingRight=4;overflow=hidden;rotatable=0;points=[[0,0.5],[1,0.5]];portConstraint=eastwest;" parent="9Ri08BBr-EwWfyPE7lYP-1" vertex="1">
          <mxGeometry y="26" width="160" height="26" as="geometry" />
        </mxCell>
        <mxCell id="9Ri08BBr-EwWfyPE7lYP-3" value="apellidos" style="text;align=left;verticalAlign=top;spacingLeft=4;spacingRight=4;overflow=hidden;rotatable=0;points=[[0,0.5],[1,0.5]];portConstraint=eastwest;" parent="9Ri08BBr-EwWfyPE7lYP-1" vertex="1">
          <mxGeometry y="52" width="160" height="26" as="geometry" />
        </mxCell>
        <mxCell id="9Ri08BBr-EwWfyPE7lYP-4" value="dirección" style="text;align=left;verticalAlign=top;spacingLeft=4;spacingRight=4;overflow=hidden;rotatable=0;points=[[0,0.5],[1,0.5]];portConstraint=eastwest;rounded=0;shadow=0;html=0;" parent="9Ri08BBr-EwWfyPE7lYP-1" vertex="1">
          <mxGeometry y="78" width="160" height="26" as="geometry" />
        </mxCell>
        <mxCell id="9Ri08BBr-EwWfyPE7lYP-5" value="email" style="text;align=left;verticalAlign=top;spacingLeft=4;spacingRight=4;overflow=hidden;rotatable=0;points=[[0,0.5],[1,0.5]];portConstraint=eastwest;rounded=0;shadow=0;html=0;" parent="9Ri08BBr-EwWfyPE7lYP-1" vertex="1">
          <mxGeometry y="104" width="160" height="26" as="geometry" />
        </mxCell>
        <mxCell id="9Ri08BBr-EwWfyPE7lYP-6" value="teléfono" style="text;align=left;verticalAlign=top;spacingLeft=4;spacingRight=4;overflow=hidden;rotatable=0;points=[[0,0.5],[1,0.5]];portConstraint=eastwest;rounded=0;shadow=0;html=0;" parent="9Ri08BBr-EwWfyPE7lYP-1" vertex="1">
          <mxGeometry y="130" width="160" height="26" as="geometry" />
        </mxCell>
        <mxCell id="9Ri08BBr-EwWfyPE7lYP-7" value="nº pedidos&#xa;" style="text;align=left;verticalAlign=top;spacingLeft=4;spacingRight=4;overflow=hidden;rotatable=0;points=[[0,0.5],[1,0.5]];portConstraint=eastwest;rounded=0;shadow=0;html=0;" parent="9Ri08BBr-EwWfyPE7lYP-1" vertex="1">
          <mxGeometry y="156" width="160" height="26" as="geometry" />
        </mxCell>
        <mxCell id="9Ri08BBr-EwWfyPE7lYP-8" value="preferencias" style="text;align=left;verticalAlign=top;spacingLeft=4;spacingRight=4;overflow=hidden;rotatable=0;points=[[0,0.5],[1,0.5]];portConstraint=eastwest;rounded=0;shadow=0;html=0;" parent="9Ri08BBr-EwWfyPE7lYP-1" vertex="1">
          <mxGeometry y="182" width="160" height="26" as="geometry" />
        </mxCell>
        <mxCell id="9Ri08BBr-EwWfyPE7lYP-9" value="PedidoCliente" style="swimlane;fontStyle=2;align=center;verticalAlign=top;childLayout=stackLayout;horizontal=1;startSize=26;horizontalStack=0;resizeParent=1;resizeLast=0;collapsible=1;marginBottom=0;rounded=0;shadow=0;strokeWidth=1;" parent="1" vertex="1">
          <mxGeometry x="395" y="1353" width="159" height="182" as="geometry">
            <mxRectangle x="230" y="140" width="160" height="26" as="alternateBounds" />
          </mxGeometry>
        </mxCell>
        <mxCell id="9Ri08BBr-EwWfyPE7lYP-10" value="numPedido" style="text;align=left;verticalAlign=top;spacingLeft=4;spacingRight=4;overflow=hidden;rotatable=0;points=[[0,0.5],[1,0.5]];portConstraint=eastwest;" parent="9Ri08BBr-EwWfyPE7lYP-9" vertex="1">
          <mxGeometry y="26" width="159" height="26" as="geometry" />
        </mxCell>
        <mxCell id="9Ri08BBr-EwWfyPE7lYP-11" value="TipoPedidoCliente" style="text;align=left;verticalAlign=top;spacingLeft=4;spacingRight=4;overflow=hidden;rotatable=0;points=[[0,0.5],[1,0.5]];portConstraint=eastwest;rounded=0;shadow=0;html=0;fontStyle=2" parent="9Ri08BBr-EwWfyPE7lYP-9" vertex="1">
          <mxGeometry y="52" width="159" height="26" as="geometry" />
        </mxCell>
        <mxCell id="9Ri08BBr-EwWfyPE7lYP-12" value="EstadoPedido" style="text;align=left;verticalAlign=top;spacingLeft=4;spacingRight=4;overflow=hidden;rotatable=0;points=[[0,0.5],[1,0.5]];portConstraint=eastwest;fontStyle=2" parent="9Ri08BBr-EwWfyPE7lYP-9" vertex="1">
          <mxGeometry y="78" width="159" height="26" as="geometry" />
        </mxCell>
        <mxCell id="9Ri08BBr-EwWfyPE7lYP-13" value="estáFacturado" style="text;align=left;verticalAlign=top;spacingLeft=4;spacingRight=4;overflow=hidden;rotatable=0;points=[[0,0.5],[1,0.5]];portConstraint=eastwest;fontStyle=0" parent="9Ri08BBr-EwWfyPE7lYP-9" vertex="1">
          <mxGeometry y="104" width="159" height="26" as="geometry" />
        </mxCell>
        <mxCell id="9Ri08BBr-EwWfyPE7lYP-14" value="fecha" style="text;align=left;verticalAlign=top;spacingLeft=4;spacingRight=4;overflow=hidden;rotatable=0;points=[[0,0.5],[1,0.5]];portConstraint=eastwest;rounded=0;shadow=0;html=0;" parent="9Ri08BBr-EwWfyPE7lYP-9" vertex="1">
          <mxGeometry y="130" width="159" height="26" as="geometry" />
        </mxCell>
        <mxCell id="9Ri08BBr-EwWfyPE7lYP-126" value="estáPagado" style="text;align=left;verticalAlign=top;spacingLeft=4;spacingRight=4;overflow=hidden;rotatable=0;points=[[0,0.5],[1,0.5]];portConstraint=eastwest;rounded=0;shadow=0;html=0;" parent="9Ri08BBr-EwWfyPE7lYP-9" vertex="1">
          <mxGeometry y="156" width="159" height="26" as="geometry" />
        </mxCell>
        <mxCell id="9Ri08BBr-EwWfyPE7lYP-15" value="&lt;font style=&quot;font-size: 10px;&quot;&gt;1&lt;/font&gt;" style="text;html=1;align=center;verticalAlign=middle;resizable=0;points=[];autosize=1;strokeColor=none;fillColor=none;fontSize=16;" parent="1" vertex="1">
          <mxGeometry x="268" y="1421" width="24" height="31" as="geometry" />
        </mxCell>
        <mxCell id="9Ri08BBr-EwWfyPE7lYP-16" value="&lt;font style=&quot;font-size: 10px;&quot;&gt;realiza&lt;/font&gt;" style="text;html=1;align=center;verticalAlign=middle;resizable=0;points=[];autosize=1;strokeColor=none;fillColor=none;fontSize=16;" parent="1" vertex="1">
          <mxGeometry x="305" y="1421" width="47" height="31" as="geometry" />
        </mxCell>
        <mxCell id="9Ri08BBr-EwWfyPE7lYP-17" value="Trabajador" style="swimlane;fontStyle=2;align=center;verticalAlign=top;childLayout=stackLayout;horizontal=1;startSize=26;horizontalStack=0;resizeParent=1;resizeLast=0;collapsible=1;marginBottom=0;rounded=0;shadow=0;strokeWidth=1;" parent="1" vertex="1">
          <mxGeometry x="394" y="1581" width="160" height="107" as="geometry">
            <mxRectangle x="230" y="140" width="160" height="26" as="alternateBounds" />
          </mxGeometry>
        </mxCell>
        <mxCell id="9Ri08BBr-EwWfyPE7lYP-18" value="nombre" style="text;align=left;verticalAlign=top;spacingLeft=4;spacingRight=4;overflow=hidden;rotatable=0;points=[[0,0.5],[1,0.5]];portConstraint=eastwest;rounded=0;shadow=0;html=0;" parent="9Ri08BBr-EwWfyPE7lYP-17" vertex="1">
          <mxGeometry y="26" width="160" height="26" as="geometry" />
        </mxCell>
        <mxCell id="9Ri08BBr-EwWfyPE7lYP-19" value="dni" style="text;align=left;verticalAlign=top;spacingLeft=4;spacingRight=4;overflow=hidden;rotatable=0;points=[[0,0.5],[1,0.5]];portConstraint=eastwest;rounded=0;shadow=0;html=0;" parent="9Ri08BBr-EwWfyPE7lYP-17" vertex="1">
          <mxGeometry y="52" width="160" height="26" as="geometry" />
        </mxCell>
        <mxCell id="9Ri08BBr-EwWfyPE7lYP-20" value="RolTrabajador" style="text;align=left;verticalAlign=top;spacingLeft=4;spacingRight=4;overflow=hidden;rotatable=0;points=[[0,0.5],[1,0.5]];portConstraint=eastwest;fontStyle=2" parent="9Ri08BBr-EwWfyPE7lYP-17" vertex="1">
          <mxGeometry y="78" width="160" height="24" as="geometry" />
        </mxCell>
        <mxCell id="9Ri08BBr-EwWfyPE7lYP-21" value="0..n" style="text;html=1;align=center;verticalAlign=middle;resizable=0;points=[];autosize=1;strokeColor=none;fillColor=none;fontSize=10;" parent="1" vertex="1">
          <mxGeometry x="471" y="1533" width="35" height="24" as="geometry" />
        </mxCell>
        <mxCell id="9Ri08BBr-EwWfyPE7lYP-22" value="&lt;font style=&quot;font-size: 10px;&quot;&gt;1..n&lt;/font&gt;" style="text;html=1;align=center;verticalAlign=middle;resizable=0;points=[];autosize=1;strokeColor=none;fillColor=none;fontSize=16;" parent="1" vertex="1">
          <mxGeometry x="468" y="1551" width="35" height="31" as="geometry" />
        </mxCell>
        <mxCell id="9Ri08BBr-EwWfyPE7lYP-23" value="&lt;font style=&quot;font-size: 10px;&quot;&gt;gestionado por&lt;/font&gt;" style="text;html=1;align=center;verticalAlign=middle;resizable=0;points=[];autosize=1;strokeColor=none;fillColor=none;fontSize=16;" parent="1" vertex="1">
          <mxGeometry x="394" y="1540" width="84" height="31" as="geometry" />
        </mxCell>
        <mxCell id="9Ri08BBr-EwWfyPE7lYP-24" value="FacturaCliente" style="swimlane;fontStyle=2;align=center;verticalAlign=top;childLayout=stackLayout;horizontal=1;startSize=26;horizontalStack=0;resizeParent=1;resizeLast=0;collapsible=1;marginBottom=0;rounded=0;shadow=0;strokeWidth=1;" parent="1" vertex="1">
          <mxGeometry x="640" y="1515.5" width="160" height="104.5" as="geometry">
            <mxRectangle x="230" y="140" width="160" height="26" as="alternateBounds" />
          </mxGeometry>
        </mxCell>
        <mxCell id="xK8pq6zEZmJphYUTjPfh-2" value="referencia" style="text;align=left;verticalAlign=top;spacingLeft=4;spacingRight=4;overflow=hidden;rotatable=0;points=[[0,0.5],[1,0.5]];portConstraint=eastwest;rounded=0;shadow=0;html=0;" vertex="1" parent="9Ri08BBr-EwWfyPE7lYP-24">
          <mxGeometry y="26" width="160" height="26" as="geometry" />
        </mxCell>
        <mxCell id="9Ri08BBr-EwWfyPE7lYP-25" value="numRegistro" style="text;align=left;verticalAlign=top;spacingLeft=4;spacingRight=4;overflow=hidden;rotatable=0;points=[[0,0.5],[1,0.5]];portConstraint=eastwest;" parent="9Ri08BBr-EwWfyPE7lYP-24" vertex="1">
          <mxGeometry y="52" width="160" height="26" as="geometry" />
        </mxCell>
        <mxCell id="9Ri08BBr-EwWfyPE7lYP-26" value="precio" style="text;align=left;verticalAlign=top;spacingLeft=4;spacingRight=4;overflow=hidden;rotatable=0;points=[[0,0.5],[1,0.5]];portConstraint=eastwest;rounded=0;shadow=0;html=0;" parent="9Ri08BBr-EwWfyPE7lYP-24" vertex="1">
          <mxGeometry y="78" width="160" height="26" as="geometry" />
        </mxCell>
        <mxCell id="9Ri08BBr-EwWfyPE7lYP-28" value="&lt;&lt;enumerado&gt;&#xa;TipoPedidoCliente" style="swimlane;fontStyle=2;align=center;verticalAlign=top;childLayout=stackLayout;horizontal=1;startSize=39;horizontalStack=0;resizeParent=1;resizeLast=0;collapsible=1;marginBottom=0;rounded=0;shadow=0;strokeWidth=1;" parent="1" vertex="1">
          <mxGeometry x="574" y="1190" width="160" height="195" as="geometry">
            <mxRectangle x="230" y="140" width="160" height="26" as="alternateBounds" />
          </mxGeometry>
        </mxCell>
        <mxCell id="9Ri08BBr-EwWfyPE7lYP-29" value="Mueble" style="text;align=left;verticalAlign=top;spacingLeft=4;spacingRight=4;overflow=hidden;rotatable=0;points=[[0,0.5],[1,0.5]];portConstraint=eastwest;" parent="9Ri08BBr-EwWfyPE7lYP-28" vertex="1">
          <mxGeometry y="39" width="160" height="26" as="geometry" />
        </mxCell>
        <mxCell id="9Ri08BBr-EwWfyPE7lYP-30" value="Cocina a medida" style="text;align=left;verticalAlign=top;spacingLeft=4;spacingRight=4;overflow=hidden;rotatable=0;points=[[0,0.5],[1,0.5]];portConstraint=eastwest;rounded=0;shadow=0;html=0;" parent="9Ri08BBr-EwWfyPE7lYP-28" vertex="1">
          <mxGeometry y="65" width="160" height="26" as="geometry" />
        </mxCell>
        <mxCell id="9Ri08BBr-EwWfyPE7lYP-31" value="Electrodoméstico" style="text;align=left;verticalAlign=top;spacingLeft=4;spacingRight=4;overflow=hidden;rotatable=0;points=[[0,0.5],[1,0.5]];portConstraint=eastwest;rounded=0;shadow=0;html=0;" parent="9Ri08BBr-EwWfyPE7lYP-28" vertex="1">
          <mxGeometry y="91" width="160" height="26" as="geometry" />
        </mxCell>
        <mxCell id="9Ri08BBr-EwWfyPE7lYP-32" value="Vestidor a medida" style="text;align=left;verticalAlign=top;spacingLeft=4;spacingRight=4;overflow=hidden;rotatable=0;points=[[0,0.5],[1,0.5]];portConstraint=eastwest;rounded=0;shadow=0;html=0;" parent="9Ri08BBr-EwWfyPE7lYP-28" vertex="1">
          <mxGeometry y="117" width="160" height="26" as="geometry" />
        </mxCell>
        <mxCell id="9Ri08BBr-EwWfyPE7lYP-33" value="Armario a medida" style="text;align=left;verticalAlign=top;spacingLeft=4;spacingRight=4;overflow=hidden;rotatable=0;points=[[0,0.5],[1,0.5]];portConstraint=eastwest;rounded=0;shadow=0;html=0;" parent="9Ri08BBr-EwWfyPE7lYP-28" vertex="1">
          <mxGeometry y="143" width="160" height="26" as="geometry" />
        </mxCell>
        <mxCell id="9Ri08BBr-EwWfyPE7lYP-34" value="Varios" style="text;align=left;verticalAlign=top;spacingLeft=4;spacingRight=4;overflow=hidden;rotatable=0;points=[[0,0.5],[1,0.5]];portConstraint=eastwest;rounded=0;shadow=0;html=0;" parent="9Ri08BBr-EwWfyPE7lYP-28" vertex="1">
          <mxGeometry y="169" width="160" height="26" as="geometry" />
        </mxCell>
        <mxCell id="9Ri08BBr-EwWfyPE7lYP-35" value="" style="endArrow=none;html=1;rounded=0;fontSize=12;startSize=8;endSize=8;curved=1;entryX=0.915;entryY=0.895;entryDx=0;entryDy=0;entryPerimeter=0;" parent="1" edge="1">
          <mxGeometry width="50" height="50" relative="1" as="geometry">
            <mxPoint x="275" y="1447" as="sourcePoint" />
            <mxPoint x="395.02499999999986" y="1445.98" as="targetPoint" />
          </mxGeometry>
        </mxCell>
        <mxCell id="9Ri08BBr-EwWfyPE7lYP-36" value="" style="endArrow=none;html=1;rounded=0;fontSize=12;startSize=8;endSize=8;curved=1;entryX=0.5;entryY=1;entryDx=0;entryDy=0;exitX=0.5;exitY=0;exitDx=0;exitDy=0;" parent="1" source="9Ri08BBr-EwWfyPE7lYP-17" target="9Ri08BBr-EwWfyPE7lYP-9" edge="1">
          <mxGeometry width="50" height="50" relative="1" as="geometry">
            <mxPoint x="397" y="1551" as="sourcePoint" />
            <mxPoint x="457" y="1507" as="targetPoint" />
          </mxGeometry>
        </mxCell>
        <mxCell id="9Ri08BBr-EwWfyPE7lYP-37" value="" style="endArrow=diamondThin;endFill=1;endSize=24;html=1;rounded=0;fontSize=12;curved=1;" parent="1" edge="1">
          <mxGeometry width="160" relative="1" as="geometry">
            <mxPoint x="740" y="1439.69" as="sourcePoint" />
            <mxPoint x="554" y="1439.69" as="targetPoint" />
          </mxGeometry>
        </mxCell>
        <mxCell id="9Ri08BBr-EwWfyPE7lYP-38" value="LíneaPedido" style="swimlane;fontStyle=2;align=center;verticalAlign=top;childLayout=stackLayout;horizontal=1;startSize=26;horizontalStack=0;resizeParent=1;resizeLast=0;collapsible=1;marginBottom=0;rounded=0;shadow=0;strokeWidth=1;" parent="1" vertex="1">
          <mxGeometry x="740" y="1395" width="159" height="78" as="geometry">
            <mxRectangle x="230" y="140" width="160" height="26" as="alternateBounds" />
          </mxGeometry>
        </mxCell>
        <mxCell id="9Ri08BBr-EwWfyPE7lYP-39" value="unidades" style="text;align=left;verticalAlign=top;spacingLeft=4;spacingRight=4;overflow=hidden;rotatable=0;points=[[0,0.5],[1,0.5]];portConstraint=eastwest;" parent="9Ri08BBr-EwWfyPE7lYP-38" vertex="1">
          <mxGeometry y="26" width="159" height="26" as="geometry" />
        </mxCell>
        <mxCell id="9Ri08BBr-EwWfyPE7lYP-40" value="precio" style="text;align=left;verticalAlign=top;spacingLeft=4;spacingRight=4;overflow=hidden;rotatable=0;points=[[0,0.5],[1,0.5]];portConstraint=eastwest;" parent="9Ri08BBr-EwWfyPE7lYP-38" vertex="1">
          <mxGeometry y="52" width="159" height="26" as="geometry" />
        </mxCell>
        <mxCell id="9Ri08BBr-EwWfyPE7lYP-41" value="&lt;font style=&quot;font-size: 10px;&quot;&gt;1..n&lt;/font&gt;" style="text;html=1;align=center;verticalAlign=middle;resizable=0;points=[];autosize=1;strokeColor=none;fillColor=none;fontSize=16;" parent="1" vertex="1">
          <mxGeometry x="708" y="1413.5" width="35" height="31" as="geometry" />
        </mxCell>
        <mxCell id="9Ri08BBr-EwWfyPE7lYP-42" value="" style="endArrow=diamondThin;endFill=1;endSize=24;html=1;rounded=0;fontSize=12;curved=1;" parent="1" edge="1">
          <mxGeometry width="160" relative="1" as="geometry">
            <mxPoint x="890" y="1554" as="sourcePoint" />
            <mxPoint x="800" y="1554.19" as="targetPoint" />
          </mxGeometry>
        </mxCell>
        <mxCell id="9Ri08BBr-EwWfyPE7lYP-43" value="LíneaFactura" style="swimlane;fontStyle=2;align=center;verticalAlign=top;childLayout=stackLayout;horizontal=1;startSize=26;horizontalStack=0;resizeParent=1;resizeLast=0;collapsible=1;marginBottom=0;rounded=0;shadow=0;strokeWidth=1;" parent="1" vertex="1">
          <mxGeometry x="890" y="1507" width="159" height="78" as="geometry">
            <mxRectangle x="230" y="140" width="160" height="26" as="alternateBounds" />
          </mxGeometry>
        </mxCell>
        <mxCell id="9Ri08BBr-EwWfyPE7lYP-44" value="unidades" style="text;align=left;verticalAlign=top;spacingLeft=4;spacingRight=4;overflow=hidden;rotatable=0;points=[[0,0.5],[1,0.5]];portConstraint=eastwest;" parent="9Ri08BBr-EwWfyPE7lYP-43" vertex="1">
          <mxGeometry y="26" width="159" height="26" as="geometry" />
        </mxCell>
        <mxCell id="9Ri08BBr-EwWfyPE7lYP-45" value="precio" style="text;align=left;verticalAlign=top;spacingLeft=4;spacingRight=4;overflow=hidden;rotatable=0;points=[[0,0.5],[1,0.5]];portConstraint=eastwest;" parent="9Ri08BBr-EwWfyPE7lYP-43" vertex="1">
          <mxGeometry y="52" width="159" height="26" as="geometry" />
        </mxCell>
        <mxCell id="9Ri08BBr-EwWfyPE7lYP-46" value="&lt;font style=&quot;font-size: 10px;&quot;&gt;1..n&lt;/font&gt;" style="text;html=1;align=center;verticalAlign=middle;resizable=0;points=[];autosize=1;strokeColor=none;fillColor=none;fontSize=16;" parent="1" vertex="1">
          <mxGeometry x="858" y="1529.5" width="35" height="31" as="geometry" />
        </mxCell>
        <mxCell id="9Ri08BBr-EwWfyPE7lYP-47" value="Proveedor" style="swimlane;fontStyle=2;align=center;verticalAlign=top;childLayout=stackLayout;horizontal=1;startSize=23;horizontalStack=0;resizeParent=1;resizeLast=0;collapsible=1;marginBottom=0;rounded=0;shadow=0;strokeWidth=1;" parent="1" vertex="1">
          <mxGeometry x="118" y="1719" width="170" height="159" as="geometry">
            <mxRectangle x="230" y="140" width="160" height="26" as="alternateBounds" />
          </mxGeometry>
        </mxCell>
        <mxCell id="9Ri08BBr-EwWfyPE7lYP-48" value="nombre" style="text;align=left;verticalAlign=top;spacingLeft=4;spacingRight=4;overflow=hidden;rotatable=0;points=[[0,0.5],[1,0.5]];portConstraint=eastwest;fontStyle=2" parent="9Ri08BBr-EwWfyPE7lYP-47" vertex="1">
          <mxGeometry y="23" width="170" height="26" as="geometry" />
        </mxCell>
        <mxCell id="9Ri08BBr-EwWfyPE7lYP-49" value="dirección" style="text;align=left;verticalAlign=top;spacingLeft=4;spacingRight=4;overflow=hidden;rotatable=0;points=[[0,0.5],[1,0.5]];portConstraint=eastwest;" parent="9Ri08BBr-EwWfyPE7lYP-47" vertex="1">
          <mxGeometry y="49" width="170" height="26" as="geometry" />
        </mxCell>
        <mxCell id="9Ri08BBr-EwWfyPE7lYP-50" value="email" style="text;align=left;verticalAlign=top;spacingLeft=4;spacingRight=4;overflow=hidden;rotatable=0;points=[[0,0.5],[1,0.5]];portConstraint=eastwest;" parent="9Ri08BBr-EwWfyPE7lYP-47" vertex="1">
          <mxGeometry y="75" width="170" height="26" as="geometry" />
        </mxCell>
        <mxCell id="9Ri08BBr-EwWfyPE7lYP-51" value="teléfono" style="text;align=left;verticalAlign=top;spacingLeft=4;spacingRight=4;overflow=hidden;rotatable=0;points=[[0,0.5],[1,0.5]];portConstraint=eastwest;rounded=0;shadow=0;html=0;" parent="9Ri08BBr-EwWfyPE7lYP-47" vertex="1">
          <mxGeometry y="101" width="170" height="26" as="geometry" />
        </mxCell>
        <mxCell id="9Ri08BBr-EwWfyPE7lYP-52" value="nº pedidos" style="text;align=left;verticalAlign=top;spacingLeft=4;spacingRight=4;overflow=hidden;rotatable=0;points=[[0,0.5],[1,0.5]];portConstraint=eastwest;rounded=0;shadow=0;html=0;" parent="9Ri08BBr-EwWfyPE7lYP-47" vertex="1">
          <mxGeometry y="127" width="170" height="26" as="geometry" />
        </mxCell>
        <mxCell id="9Ri08BBr-EwWfyPE7lYP-53" value="&lt;font style=&quot;font-size: 10px;&quot;&gt;1..n&lt;/font&gt;" style="text;html=1;align=center;verticalAlign=middle;resizable=0;points=[];autosize=1;strokeColor=none;fillColor=none;fontSize=16;" parent="1" vertex="1">
          <mxGeometry x="471" y="1682" width="35" height="31" as="geometry" />
        </mxCell>
        <mxCell id="9Ri08BBr-EwWfyPE7lYP-54" value="&lt;span style=&quot;font-size: 10px;&quot;&gt;1..n&lt;/span&gt;" style="text;html=1;align=center;verticalAlign=middle;resizable=0;points=[];autosize=1;strokeColor=none;fillColor=none;fontSize=16;" parent="1" vertex="1">
          <mxGeometry x="468" y="1736" width="35" height="31" as="geometry" />
        </mxCell>
        <mxCell id="9Ri08BBr-EwWfyPE7lYP-55" value="PedidoProveedor" style="swimlane;fontStyle=2;align=center;verticalAlign=top;childLayout=stackLayout;horizontal=1;startSize=26;horizontalStack=0;resizeParent=1;resizeLast=0;collapsible=1;marginBottom=0;rounded=0;shadow=0;strokeWidth=1;" parent="1" vertex="1">
          <mxGeometry x="394" y="1762" width="159" height="130" as="geometry">
            <mxRectangle x="230" y="140" width="160" height="26" as="alternateBounds" />
          </mxGeometry>
        </mxCell>
        <mxCell id="9Ri08BBr-EwWfyPE7lYP-56" value="numPedido" style="text;align=left;verticalAlign=top;spacingLeft=4;spacingRight=4;overflow=hidden;rotatable=0;points=[[0,0.5],[1,0.5]];portConstraint=eastwest;" parent="9Ri08BBr-EwWfyPE7lYP-55" vertex="1">
          <mxGeometry y="26" width="159" height="26" as="geometry" />
        </mxCell>
        <mxCell id="9Ri08BBr-EwWfyPE7lYP-57" value="TipoPedidoProveedor" style="text;align=left;verticalAlign=top;spacingLeft=4;spacingRight=4;overflow=hidden;rotatable=0;points=[[0,0.5],[1,0.5]];portConstraint=eastwest;rounded=0;shadow=0;html=0;fontStyle=2" parent="9Ri08BBr-EwWfyPE7lYP-55" vertex="1">
          <mxGeometry y="52" width="159" height="26" as="geometry" />
        </mxCell>
        <mxCell id="9Ri08BBr-EwWfyPE7lYP-58" value="fecha" style="text;align=left;verticalAlign=top;spacingLeft=4;spacingRight=4;overflow=hidden;rotatable=0;points=[[0,0.5],[1,0.5]];portConstraint=eastwest;rounded=0;shadow=0;html=0;" parent="9Ri08BBr-EwWfyPE7lYP-55" vertex="1">
          <mxGeometry y="78" width="159" height="26" as="geometry" />
        </mxCell>
        <mxCell id="xK8pq6zEZmJphYUTjPfh-4" value="estáPagado" style="text;align=left;verticalAlign=top;spacingLeft=4;spacingRight=4;overflow=hidden;rotatable=0;points=[[0,0.5],[1,0.5]];portConstraint=eastwest;rounded=0;shadow=0;html=0;" vertex="1" parent="9Ri08BBr-EwWfyPE7lYP-55">
          <mxGeometry y="104" width="159" height="26" as="geometry" />
        </mxCell>
        <mxCell id="9Ri08BBr-EwWfyPE7lYP-59" value="" style="endArrow=none;html=1;rounded=0;fontSize=12;startSize=8;endSize=8;curved=1;entryX=0.5;entryY=1;entryDx=0;entryDy=0;exitX=0.5;exitY=0;exitDx=0;exitDy=0;" parent="1" source="9Ri08BBr-EwWfyPE7lYP-55" target="9Ri08BBr-EwWfyPE7lYP-17" edge="1">
          <mxGeometry width="50" height="50" relative="1" as="geometry">
            <mxPoint x="343" y="1781" as="sourcePoint" />
            <mxPoint x="446" y="1720" as="targetPoint" />
          </mxGeometry>
        </mxCell>
        <mxCell id="9Ri08BBr-EwWfyPE7lYP-60" value="&lt;font style=&quot;font-size: 10px;&quot;&gt;realiza&lt;/font&gt;" style="text;html=1;align=center;verticalAlign=middle;resizable=0;points=[];autosize=1;strokeColor=none;fillColor=none;fontSize=16;" parent="1" vertex="1">
          <mxGeometry x="428" y="1716" width="47" height="31" as="geometry" />
        </mxCell>
        <mxCell id="9Ri08BBr-EwWfyPE7lYP-61" value="FacturaProveedor" style="swimlane;fontStyle=2;align=center;verticalAlign=top;childLayout=stackLayout;horizontal=1;startSize=26;horizontalStack=0;resizeParent=1;resizeLast=0;collapsible=1;marginBottom=0;rounded=0;shadow=0;strokeWidth=1;" parent="1" vertex="1">
          <mxGeometry x="640" y="1679.5" width="160" height="104" as="geometry">
            <mxRectangle x="230" y="140" width="160" height="26" as="alternateBounds" />
          </mxGeometry>
        </mxCell>
        <mxCell id="xK8pq6zEZmJphYUTjPfh-3" value="referencia" style="text;align=left;verticalAlign=top;spacingLeft=4;spacingRight=4;overflow=hidden;rotatable=0;points=[[0,0.5],[1,0.5]];portConstraint=eastwest;rounded=0;shadow=0;html=0;" vertex="1" parent="9Ri08BBr-EwWfyPE7lYP-61">
          <mxGeometry y="26" width="160" height="26" as="geometry" />
        </mxCell>
        <mxCell id="9Ri08BBr-EwWfyPE7lYP-62" value="numRegistro" style="text;align=left;verticalAlign=top;spacingLeft=4;spacingRight=4;overflow=hidden;rotatable=0;points=[[0,0.5],[1,0.5]];portConstraint=eastwest;" parent="9Ri08BBr-EwWfyPE7lYP-61" vertex="1">
          <mxGeometry y="52" width="160" height="26" as="geometry" />
        </mxCell>
        <mxCell id="9Ri08BBr-EwWfyPE7lYP-63" value="precio" style="text;align=left;verticalAlign=top;spacingLeft=4;spacingRight=4;overflow=hidden;rotatable=0;points=[[0,0.5],[1,0.5]];portConstraint=eastwest;rounded=0;shadow=0;html=0;" parent="9Ri08BBr-EwWfyPE7lYP-61" vertex="1">
          <mxGeometry y="78" width="160" height="26" as="geometry" />
        </mxCell>
        <mxCell id="9Ri08BBr-EwWfyPE7lYP-65" value="" style="endArrow=diamondThin;endFill=1;endSize=24;html=1;rounded=0;fontSize=12;curved=1;" parent="1" edge="1">
          <mxGeometry width="160" relative="1" as="geometry">
            <mxPoint x="890" y="1734.5" as="sourcePoint" />
            <mxPoint x="800" y="1734.69" as="targetPoint" />
          </mxGeometry>
        </mxCell>
        <mxCell id="9Ri08BBr-EwWfyPE7lYP-66" value="LíneaFactura" style="swimlane;fontStyle=2;align=center;verticalAlign=top;childLayout=stackLayout;horizontal=1;startSize=26;horizontalStack=0;resizeParent=1;resizeLast=0;collapsible=1;marginBottom=0;rounded=0;shadow=0;strokeWidth=1;" parent="1" vertex="1">
          <mxGeometry x="890" y="1708.5" width="159" height="78" as="geometry">
            <mxRectangle x="230" y="140" width="160" height="26" as="alternateBounds" />
          </mxGeometry>
        </mxCell>
        <mxCell id="9Ri08BBr-EwWfyPE7lYP-67" value="unidades" style="text;align=left;verticalAlign=top;spacingLeft=4;spacingRight=4;overflow=hidden;rotatable=0;points=[[0,0.5],[1,0.5]];portConstraint=eastwest;" parent="9Ri08BBr-EwWfyPE7lYP-66" vertex="1">
          <mxGeometry y="26" width="159" height="26" as="geometry" />
        </mxCell>
        <mxCell id="9Ri08BBr-EwWfyPE7lYP-68" value="precio" style="text;align=left;verticalAlign=top;spacingLeft=4;spacingRight=4;overflow=hidden;rotatable=0;points=[[0,0.5],[1,0.5]];portConstraint=eastwest;" parent="9Ri08BBr-EwWfyPE7lYP-66" vertex="1">
          <mxGeometry y="52" width="159" height="26" as="geometry" />
        </mxCell>
        <mxCell id="9Ri08BBr-EwWfyPE7lYP-69" value="&lt;font style=&quot;font-size: 10px;&quot;&gt;1..n&lt;/font&gt;" style="text;html=1;align=center;verticalAlign=middle;resizable=0;points=[];autosize=1;strokeColor=none;fillColor=none;fontSize=16;" parent="1" vertex="1">
          <mxGeometry x="858" y="1708.5" width="35" height="31" as="geometry" />
        </mxCell>
        <mxCell id="9Ri08BBr-EwWfyPE7lYP-70" value="Producto" style="swimlane;fontStyle=2;align=center;verticalAlign=top;childLayout=stackLayout;horizontal=1;startSize=26;horizontalStack=0;resizeParent=1;resizeLast=0;collapsible=1;marginBottom=0;rounded=0;shadow=0;strokeWidth=1;" parent="1" vertex="1">
          <mxGeometry x="1170" y="1489" width="159" height="182" as="geometry">
            <mxRectangle x="230" y="140" width="160" height="26" as="alternateBounds" />
          </mxGeometry>
        </mxCell>
        <mxCell id="9Ri08BBr-EwWfyPE7lYP-71" value="nombre" style="text;align=left;verticalAlign=top;spacingLeft=4;spacingRight=4;overflow=hidden;rotatable=0;points=[[0,0.5],[1,0.5]];portConstraint=eastwest;" parent="9Ri08BBr-EwWfyPE7lYP-70" vertex="1">
          <mxGeometry y="26" width="159" height="26" as="geometry" />
        </mxCell>
        <mxCell id="9Ri08BBr-EwWfyPE7lYP-72" value="descripción" style="text;align=left;verticalAlign=top;spacingLeft=4;spacingRight=4;overflow=hidden;rotatable=0;points=[[0,0.5],[1,0.5]];portConstraint=eastwest;" parent="9Ri08BBr-EwWfyPE7lYP-70" vertex="1">
          <mxGeometry y="52" width="159" height="26" as="geometry" />
        </mxCell>
        <mxCell id="9Ri08BBr-EwWfyPE7lYP-73" value="tipo" style="text;align=left;verticalAlign=top;spacingLeft=4;spacingRight=4;overflow=hidden;rotatable=0;points=[[0,0.5],[1,0.5]];portConstraint=eastwest;" parent="9Ri08BBr-EwWfyPE7lYP-70" vertex="1">
          <mxGeometry y="78" width="159" height="26" as="geometry" />
        </mxCell>
        <mxCell id="9Ri08BBr-EwWfyPE7lYP-74" value="precioBase" style="text;align=left;verticalAlign=top;spacingLeft=4;spacingRight=4;overflow=hidden;rotatable=0;points=[[0,0.5],[1,0.5]];portConstraint=eastwest;" parent="9Ri08BBr-EwWfyPE7lYP-70" vertex="1">
          <mxGeometry y="104" width="159" height="26" as="geometry" />
        </mxCell>
        <mxCell id="9Ri08BBr-EwWfyPE7lYP-75" value="unidades totales" style="text;align=left;verticalAlign=top;spacingLeft=4;spacingRight=4;overflow=hidden;rotatable=0;points=[[0,0.5],[1,0.5]];portConstraint=eastwest;" parent="9Ri08BBr-EwWfyPE7lYP-70" vertex="1">
          <mxGeometry y="130" width="159" height="26" as="geometry" />
        </mxCell>
        <mxCell id="9Ri08BBr-EwWfyPE7lYP-76" value="imagen" style="text;align=left;verticalAlign=top;spacingLeft=4;spacingRight=4;overflow=hidden;rotatable=0;points=[[0,0.5],[1,0.5]];portConstraint=eastwest;" parent="9Ri08BBr-EwWfyPE7lYP-70" vertex="1">
          <mxGeometry y="156" width="159" height="26" as="geometry" />
        </mxCell>
        <mxCell id="9Ri08BBr-EwWfyPE7lYP-77" value="" style="endArrow=none;html=1;rounded=0;fontSize=12;startSize=8;endSize=8;curved=1;exitX=1;exitY=0.5;exitDx=0;exitDy=0;" parent="1" source="9Ri08BBr-EwWfyPE7lYP-44" edge="1">
          <mxGeometry width="50" height="50" relative="1" as="geometry">
            <mxPoint x="943" y="1649" as="sourcePoint" />
            <mxPoint x="1169" y="1547" as="targetPoint" />
          </mxGeometry>
        </mxCell>
        <mxCell id="9Ri08BBr-EwWfyPE7lYP-78" value="" style="endArrow=none;html=1;rounded=0;fontSize=12;startSize=8;endSize=8;exitX=1.004;exitY=0.793;exitDx=0;exitDy=0;edgeStyle=orthogonalEdgeStyle;entryX=0.174;entryY=-0.002;entryDx=0;entryDy=0;entryPerimeter=0;exitPerimeter=0;" parent="1" source="9Ri08BBr-EwWfyPE7lYP-39" target="9Ri08BBr-EwWfyPE7lYP-70" edge="1">
          <mxGeometry width="50" height="50" relative="1" as="geometry">
            <mxPoint x="1061" y="1460" as="sourcePoint" />
            <mxPoint x="1112" y="1460" as="targetPoint" />
          </mxGeometry>
        </mxCell>
        <mxCell id="9Ri08BBr-EwWfyPE7lYP-79" value="&lt;font style=&quot;font-size: 10px;&quot;&gt;1..n&lt;/font&gt;" style="text;html=1;align=center;verticalAlign=middle;resizable=0;points=[];autosize=1;strokeColor=none;fillColor=none;fontSize=16;" parent="1" vertex="1">
          <mxGeometry x="1191" y="1463" width="35" height="31" as="geometry" />
        </mxCell>
        <mxCell id="9Ri08BBr-EwWfyPE7lYP-80" value="&lt;font style=&quot;font-size: 10px;&quot;&gt;1..n&lt;/font&gt;" style="text;html=1;align=center;verticalAlign=middle;resizable=0;points=[];autosize=1;strokeColor=none;fillColor=none;fontSize=16;" parent="1" vertex="1">
          <mxGeometry x="1135" y="1523" width="35" height="31" as="geometry" />
        </mxCell>
        <mxCell id="9Ri08BBr-EwWfyPE7lYP-81" value="&lt;font style=&quot;font-size: 10px;&quot;&gt;1..n&lt;/font&gt;" style="text;html=1;align=center;verticalAlign=middle;resizable=0;points=[];autosize=1;strokeColor=none;fillColor=none;fontSize=16;" parent="1" vertex="1">
          <mxGeometry x="1196" y="1665" width="35" height="31" as="geometry" />
        </mxCell>
        <mxCell id="9Ri08BBr-EwWfyPE7lYP-82" value="&lt;font style=&quot;font-size: 10px;&quot;&gt;1&lt;/font&gt;" style="text;html=1;align=center;verticalAlign=middle;resizable=0;points=[];autosize=1;strokeColor=none;fillColor=none;fontSize=16;" parent="1" vertex="1">
          <mxGeometry x="1044" y="1729" width="24" height="31" as="geometry" />
        </mxCell>
        <mxCell id="9Ri08BBr-EwWfyPE7lYP-83" value="&lt;font style=&quot;font-size: 10px;&quot;&gt;1&lt;/font&gt;" style="text;html=1;align=center;verticalAlign=middle;resizable=0;points=[];autosize=1;strokeColor=none;fillColor=none;fontSize=16;" parent="1" vertex="1">
          <mxGeometry x="1044" y="1519" width="24" height="31" as="geometry" />
        </mxCell>
        <mxCell id="9Ri08BBr-EwWfyPE7lYP-84" value="&lt;font style=&quot;font-size: 10px;&quot;&gt;1&lt;/font&gt;" style="text;html=1;align=center;verticalAlign=middle;resizable=0;points=[];autosize=1;strokeColor=none;fillColor=none;fontSize=16;" parent="1" vertex="1">
          <mxGeometry x="893" y="1413.5" width="24" height="31" as="geometry" />
        </mxCell>
        <mxCell id="9Ri08BBr-EwWfyPE7lYP-85" value="" style="endArrow=none;html=1;rounded=0;fontSize=12;startSize=8;endSize=8;edgeStyle=orthogonalEdgeStyle;exitX=0.818;exitY=1.004;exitDx=0;exitDy=0;exitPerimeter=0;" parent="1" source="9Ri08BBr-EwWfyPE7lYP-126" edge="1">
          <mxGeometry width="50" height="50" relative="1" as="geometry">
            <mxPoint x="525" y="1540" as="sourcePoint" />
            <mxPoint x="640" y="1560" as="targetPoint" />
            <Array as="points">
              <mxPoint x="525" y="1560" />
              <mxPoint x="640" y="1560" />
            </Array>
          </mxGeometry>
        </mxCell>
        <mxCell id="9Ri08BBr-EwWfyPE7lYP-86" value="" style="endArrow=none;html=1;rounded=0;fontSize=12;startSize=8;endSize=8;edgeStyle=orthogonalEdgeStyle;entryX=-0.006;entryY=0.351;entryDx=0;entryDy=0;entryPerimeter=0;" parent="1" edge="1">
          <mxGeometry width="50" height="50" relative="1" as="geometry">
            <mxPoint x="527" y="1761" as="sourcePoint" />
            <mxPoint x="640" y="1736" as="targetPoint" />
            <Array as="points">
              <mxPoint x="527" y="1761" />
              <mxPoint x="527" y="1736" />
            </Array>
          </mxGeometry>
        </mxCell>
        <mxCell id="9Ri08BBr-EwWfyPE7lYP-87" value="&lt;&lt;enumerado&gt;&gt;&#xa;RolTrabajador" style="swimlane;fontStyle=2;align=center;verticalAlign=top;childLayout=stackLayout;horizontal=1;startSize=38;horizontalStack=0;resizeParent=1;resizeLast=0;collapsible=1;marginBottom=0;rounded=0;shadow=0;strokeWidth=1;" parent="1" vertex="1">
          <mxGeometry x="185" y="1589.5" width="160" height="90" as="geometry">
            <mxRectangle x="230" y="140" width="160" height="26" as="alternateBounds" />
          </mxGeometry>
        </mxCell>
        <mxCell id="9Ri08BBr-EwWfyPE7lYP-88" value="Jefe" style="text;align=left;verticalAlign=top;spacingLeft=4;spacingRight=4;overflow=hidden;rotatable=0;points=[[0,0.5],[1,0.5]];portConstraint=eastwest;rounded=0;shadow=0;html=0;" parent="9Ri08BBr-EwWfyPE7lYP-87" vertex="1">
          <mxGeometry y="38" width="160" height="26" as="geometry" />
        </mxCell>
        <mxCell id="9Ri08BBr-EwWfyPE7lYP-89" value="Dependiente" style="text;align=left;verticalAlign=top;spacingLeft=4;spacingRight=4;overflow=hidden;rotatable=0;points=[[0,0.5],[1,0.5]];portConstraint=eastwest;rounded=0;shadow=0;html=0;" parent="9Ri08BBr-EwWfyPE7lYP-87" vertex="1">
          <mxGeometry y="64" width="160" height="26" as="geometry" />
        </mxCell>
        <mxCell id="9Ri08BBr-EwWfyPE7lYP-90" value="" style="endArrow=none;html=1;rounded=0;fontSize=12;startSize=8;endSize=8;edgeStyle=orthogonalEdgeStyle;entryX=-0.006;entryY=0.351;entryDx=0;entryDy=0;entryPerimeter=0;" parent="1" edge="1">
          <mxGeometry width="50" height="50" relative="1" as="geometry">
            <mxPoint x="289" y="1830" as="sourcePoint" />
            <mxPoint x="394" y="1830" as="targetPoint" />
            <Array as="points">
              <mxPoint x="303" y="1830" />
              <mxPoint x="303" y="1830" />
            </Array>
          </mxGeometry>
        </mxCell>
        <mxCell id="9Ri08BBr-EwWfyPE7lYP-99" value="&lt;&lt;enumerado&gt;&#xa;TipoPedidoProveedor" style="swimlane;fontStyle=2;align=center;verticalAlign=top;childLayout=stackLayout;horizontal=1;startSize=39;horizontalStack=0;resizeParent=1;resizeLast=0;collapsible=1;marginBottom=0;rounded=0;shadow=0;strokeWidth=1;" parent="1" vertex="1">
          <mxGeometry x="574" y="1843" width="170" height="195" as="geometry">
            <mxRectangle x="230" y="140" width="160" height="26" as="alternateBounds" />
          </mxGeometry>
        </mxCell>
        <mxCell id="9Ri08BBr-EwWfyPE7lYP-100" value="Mueble" style="text;align=left;verticalAlign=top;spacingLeft=4;spacingRight=4;overflow=hidden;rotatable=0;points=[[0,0.5],[1,0.5]];portConstraint=eastwest;" parent="9Ri08BBr-EwWfyPE7lYP-99" vertex="1">
          <mxGeometry y="39" width="170" height="26" as="geometry" />
        </mxCell>
        <mxCell id="9Ri08BBr-EwWfyPE7lYP-101" value="Materiales para cocina a m." style="text;align=left;verticalAlign=top;spacingLeft=4;spacingRight=4;overflow=hidden;rotatable=0;points=[[0,0.5],[1,0.5]];portConstraint=eastwest;rounded=0;shadow=0;html=0;" parent="9Ri08BBr-EwWfyPE7lYP-99" vertex="1">
          <mxGeometry y="65" width="170" height="26" as="geometry" />
        </mxCell>
        <mxCell id="9Ri08BBr-EwWfyPE7lYP-102" value="Electrodoméstico" style="text;align=left;verticalAlign=top;spacingLeft=4;spacingRight=4;overflow=hidden;rotatable=0;points=[[0,0.5],[1,0.5]];portConstraint=eastwest;rounded=0;shadow=0;html=0;" parent="9Ri08BBr-EwWfyPE7lYP-99" vertex="1">
          <mxGeometry y="91" width="170" height="26" as="geometry" />
        </mxCell>
        <mxCell id="9Ri08BBr-EwWfyPE7lYP-103" value="Materiales para vestidor a m." style="text;align=left;verticalAlign=top;spacingLeft=4;spacingRight=4;overflow=hidden;rotatable=0;points=[[0,0.5],[1,0.5]];portConstraint=eastwest;rounded=0;shadow=0;html=0;" parent="9Ri08BBr-EwWfyPE7lYP-99" vertex="1">
          <mxGeometry y="117" width="170" height="26" as="geometry" />
        </mxCell>
        <mxCell id="9Ri08BBr-EwWfyPE7lYP-104" value="Materiales para armario a m." style="text;align=left;verticalAlign=top;spacingLeft=4;spacingRight=4;overflow=hidden;rotatable=0;points=[[0,0.5],[1,0.5]];portConstraint=eastwest;rounded=0;shadow=0;html=0;" parent="9Ri08BBr-EwWfyPE7lYP-99" vertex="1">
          <mxGeometry y="143" width="170" height="26" as="geometry" />
        </mxCell>
        <mxCell id="9Ri08BBr-EwWfyPE7lYP-105" value="Varios" style="text;align=left;verticalAlign=top;spacingLeft=4;spacingRight=4;overflow=hidden;rotatable=0;points=[[0,0.5],[1,0.5]];portConstraint=eastwest;rounded=0;shadow=0;html=0;" parent="9Ri08BBr-EwWfyPE7lYP-99" vertex="1">
          <mxGeometry y="169" width="170" height="26" as="geometry" />
        </mxCell>
        <mxCell id="9Ri08BBr-EwWfyPE7lYP-106" value="&lt;font style=&quot;font-size: 10px;&quot;&gt;1&lt;/font&gt;" style="text;html=1;align=center;verticalAlign=middle;resizable=0;points=[];autosize=1;strokeColor=none;fillColor=none;fontSize=16;" parent="1" vertex="1">
          <mxGeometry x="368.5" y="1798.5" width="24" height="31" as="geometry" />
        </mxCell>
        <mxCell id="9Ri08BBr-EwWfyPE7lYP-107" value="&lt;font style=&quot;font-size: 10px;&quot;&gt;1&lt;/font&gt;" style="text;html=1;align=center;verticalAlign=middle;resizable=0;points=[];autosize=1;strokeColor=none;fillColor=none;fontSize=16;" parent="1" vertex="1">
          <mxGeometry x="288" y="1798.5" width="24" height="31" as="geometry" />
        </mxCell>
        <mxCell id="9Ri08BBr-EwWfyPE7lYP-108" value="&lt;font style=&quot;font-size: 10px;&quot;&gt;1&lt;/font&gt;" style="text;html=1;align=center;verticalAlign=middle;resizable=0;points=[];autosize=1;strokeColor=none;fillColor=none;fontSize=16;" parent="1" vertex="1">
          <mxGeometry x="526" y="1736" width="24" height="31" as="geometry" />
        </mxCell>
        <mxCell id="9Ri08BBr-EwWfyPE7lYP-109" value="&lt;font style=&quot;font-size: 10px;&quot;&gt;1&lt;/font&gt;" style="text;html=1;align=center;verticalAlign=middle;resizable=0;points=[];autosize=1;strokeColor=none;fillColor=none;fontSize=16;" parent="1" vertex="1">
          <mxGeometry x="616" y="1708" width="24" height="31" as="geometry" />
        </mxCell>
        <mxCell id="9Ri08BBr-EwWfyPE7lYP-110" value="&lt;font style=&quot;font-size: 10px;&quot;&gt;1&lt;/font&gt;" style="text;html=1;align=center;verticalAlign=middle;resizable=0;points=[];autosize=1;strokeColor=none;fillColor=none;fontSize=16;" parent="1" vertex="1">
          <mxGeometry x="520" y="1523" width="24" height="31" as="geometry" />
        </mxCell>
        <mxCell id="9Ri08BBr-EwWfyPE7lYP-111" value="&lt;font style=&quot;font-size: 10px;&quot;&gt;1&lt;/font&gt;" style="text;html=1;align=center;verticalAlign=middle;resizable=0;points=[];autosize=1;strokeColor=none;fillColor=none;fontSize=16;" parent="1" vertex="1">
          <mxGeometry x="620" y="1535" width="24" height="31" as="geometry" />
        </mxCell>
        <mxCell id="9Ri08BBr-EwWfyPE7lYP-112" value="&lt;&lt;enumerado&gt;&#xa;EstadoPedido" style="swimlane;fontStyle=2;align=center;verticalAlign=top;childLayout=stackLayout;horizontal=1;startSize=39;horizontalStack=0;resizeParent=1;resizeLast=0;collapsible=1;marginBottom=0;rounded=0;shadow=0;strokeWidth=1;" parent="1" vertex="1">
          <mxGeometry x="278" y="1151" width="160" height="143" as="geometry">
            <mxRectangle x="230" y="140" width="160" height="26" as="alternateBounds" />
          </mxGeometry>
        </mxCell>
        <mxCell id="9Ri08BBr-EwWfyPE7lYP-113" value="No gestionado" style="text;align=left;verticalAlign=top;spacingLeft=4;spacingRight=4;overflow=hidden;rotatable=0;points=[[0,0.5],[1,0.5]];portConstraint=eastwest;" parent="9Ri08BBr-EwWfyPE7lYP-112" vertex="1">
          <mxGeometry y="39" width="160" height="26" as="geometry" />
        </mxCell>
        <mxCell id="9Ri08BBr-EwWfyPE7lYP-114" value="Gestionado" style="text;align=left;verticalAlign=top;spacingLeft=4;spacingRight=4;overflow=hidden;rotatable=0;points=[[0,0.5],[1,0.5]];portConstraint=eastwest;rounded=0;shadow=0;html=0;" parent="9Ri08BBr-EwWfyPE7lYP-112" vertex="1">
          <mxGeometry y="65" width="160" height="26" as="geometry" />
        </mxCell>
        <mxCell id="9Ri08BBr-EwWfyPE7lYP-115" value="En reparto" style="text;align=left;verticalAlign=top;spacingLeft=4;spacingRight=4;overflow=hidden;rotatable=0;points=[[0,0.5],[1,0.5]];portConstraint=eastwest;rounded=0;shadow=0;html=0;" parent="9Ri08BBr-EwWfyPE7lYP-112" vertex="1">
          <mxGeometry y="91" width="160" height="26" as="geometry" />
        </mxCell>
        <mxCell id="9Ri08BBr-EwWfyPE7lYP-116" value="Realizado" style="text;align=left;verticalAlign=top;spacingLeft=4;spacingRight=4;overflow=hidden;rotatable=0;points=[[0,0.5],[1,0.5]];portConstraint=eastwest;rounded=0;shadow=0;html=0;" parent="9Ri08BBr-EwWfyPE7lYP-112" vertex="1">
          <mxGeometry y="117" width="160" height="26" as="geometry" />
        </mxCell>
        <mxCell id="9Ri08BBr-EwWfyPE7lYP-117" value="" style="endArrow=none;html=1;rounded=0;fontSize=12;startSize=8;endSize=8;exitX=1;exitY=0.5;exitDx=0;exitDy=0;edgeStyle=orthogonalEdgeStyle;" parent="1" edge="1">
          <mxGeometry width="50" height="50" relative="1" as="geometry">
            <mxPoint x="1049" y="1760.97" as="sourcePoint" />
            <mxPoint x="1196" y="1672" as="targetPoint" />
            <Array as="points">
              <mxPoint x="1049" y="1761.97" />
              <mxPoint x="1110" y="1761.97" />
              <mxPoint x="1110" y="1760.97" />
              <mxPoint x="1196" y="1760.97" />
            </Array>
          </mxGeometry>
        </mxCell>
        <mxCell id="9Ri08BBr-EwWfyPE7lYP-118" value="" style="endArrow=diamondThin;endFill=1;endSize=24;html=1;rounded=0;fontSize=12;curved=1;" parent="1" edge="1">
          <mxGeometry width="160" relative="1" as="geometry">
            <mxPoint x="778" y="1829" as="sourcePoint" />
            <mxPoint x="554" y="1828.5500000000002" as="targetPoint" />
          </mxGeometry>
        </mxCell>
        <mxCell id="9Ri08BBr-EwWfyPE7lYP-119" value="LíneaPedido" style="swimlane;fontStyle=2;align=center;verticalAlign=top;childLayout=stackLayout;horizontal=1;startSize=26;horizontalStack=0;resizeParent=1;resizeLast=0;collapsible=1;marginBottom=0;rounded=0;shadow=0;strokeWidth=1;" parent="1" vertex="1">
          <mxGeometry x="778" y="1791" width="159" height="78" as="geometry">
            <mxRectangle x="230" y="140" width="160" height="26" as="alternateBounds" />
          </mxGeometry>
        </mxCell>
        <mxCell id="9Ri08BBr-EwWfyPE7lYP-120" value="unidades" style="text;align=left;verticalAlign=top;spacingLeft=4;spacingRight=4;overflow=hidden;rotatable=0;points=[[0,0.5],[1,0.5]];portConstraint=eastwest;" parent="9Ri08BBr-EwWfyPE7lYP-119" vertex="1">
          <mxGeometry y="26" width="159" height="26" as="geometry" />
        </mxCell>
        <mxCell id="9Ri08BBr-EwWfyPE7lYP-121" value="precio" style="text;align=left;verticalAlign=top;spacingLeft=4;spacingRight=4;overflow=hidden;rotatable=0;points=[[0,0.5],[1,0.5]];portConstraint=eastwest;" parent="9Ri08BBr-EwWfyPE7lYP-119" vertex="1">
          <mxGeometry y="52" width="159" height="26" as="geometry" />
        </mxCell>
        <mxCell id="9Ri08BBr-EwWfyPE7lYP-122" value="" style="endArrow=none;html=1;rounded=0;fontSize=12;startSize=8;endSize=8;exitX=1;exitY=0.5;exitDx=0;exitDy=0;edgeStyle=orthogonalEdgeStyle;entryX=0.813;entryY=0.976;entryDx=0;entryDy=0;entryPerimeter=0;" parent="1" target="9Ri08BBr-EwWfyPE7lYP-76" edge="1">
          <mxGeometry width="50" height="50" relative="1" as="geometry">
            <mxPoint x="937" y="1835.5" as="sourcePoint" />
            <mxPoint x="1304" y="1648" as="targetPoint" />
            <Array as="points">
              <mxPoint x="998" y="1836" />
              <mxPoint x="1299" y="1835" />
            </Array>
          </mxGeometry>
        </mxCell>
        <mxCell id="9Ri08BBr-EwWfyPE7lYP-123" value="&lt;font style=&quot;font-size: 10px;&quot;&gt;1..n&lt;/font&gt;" style="text;html=1;align=center;verticalAlign=middle;resizable=0;points=[];autosize=1;strokeColor=none;fillColor=none;fontSize=16;" parent="1" vertex="1">
          <mxGeometry x="1294" y="1669" width="35" height="31" as="geometry" />
        </mxCell>
        <mxCell id="9Ri08BBr-EwWfyPE7lYP-124" value="&lt;font style=&quot;font-size: 10px;&quot;&gt;1&lt;/font&gt;" style="text;html=1;align=center;verticalAlign=middle;resizable=0;points=[];autosize=1;strokeColor=none;fillColor=none;fontSize=16;" parent="1" vertex="1">
          <mxGeometry x="937" y="1806" width="24" height="31" as="geometry" />
        </mxCell>
        <mxCell id="9Ri08BBr-EwWfyPE7lYP-125" value="0..n" style="text;html=1;align=center;verticalAlign=middle;resizable=0;points=[];autosize=1;strokeColor=none;fillColor=none;fontSize=10;" parent="1" vertex="1">
          <mxGeometry x="365" y="1424.5" width="35" height="24" as="geometry" />
        </mxCell>
        <mxCell id="9Ri08BBr-EwWfyPE7lYP-138" value="&lt;&lt;enumerado&gt;&#xa;Superficie" style="swimlane;fontStyle=2;align=center;verticalAlign=top;childLayout=stackLayout;horizontal=1;startSize=39;horizontalStack=0;resizeParent=1;resizeLast=0;collapsible=1;marginBottom=0;rounded=0;shadow=0;strokeWidth=1;" parent="1" vertex="1">
          <mxGeometry x="795.5" y="1190" width="160" height="150" as="geometry">
            <mxRectangle x="230" y="140" width="160" height="26" as="alternateBounds" />
          </mxGeometry>
        </mxCell>
        <mxCell id="9Ri08BBr-EwWfyPE7lYP-139" value="Encimera" style="text;align=left;verticalAlign=top;spacingLeft=4;spacingRight=4;overflow=hidden;rotatable=0;points=[[0,0.5],[1,0.5]];portConstraint=eastwest;" parent="9Ri08BBr-EwWfyPE7lYP-138" vertex="1">
          <mxGeometry y="39" width="160" height="26" as="geometry" />
        </mxCell>
        <mxCell id="9Ri08BBr-EwWfyPE7lYP-140" value="Cuerpo de mueble" style="text;align=left;verticalAlign=top;spacingLeft=4;spacingRight=4;overflow=hidden;rotatable=0;points=[[0,0.5],[1,0.5]];portConstraint=eastwest;rounded=0;shadow=0;html=0;" parent="9Ri08BBr-EwWfyPE7lYP-138" vertex="1">
          <mxGeometry y="65" width="160" height="26" as="geometry" />
        </mxCell>
        <mxCell id="9Ri08BBr-EwWfyPE7lYP-141" value="Frente de mueble" style="text;align=left;verticalAlign=top;spacingLeft=4;spacingRight=4;overflow=hidden;rotatable=0;points=[[0,0.5],[1,0.5]];portConstraint=eastwest;rounded=0;shadow=0;html=0;" parent="9Ri08BBr-EwWfyPE7lYP-138" vertex="1">
          <mxGeometry y="91" width="160" height="26" as="geometry" />
        </mxCell>
        <mxCell id="9Ri08BBr-EwWfyPE7lYP-142" value="Tirador" style="text;align=left;verticalAlign=top;spacingLeft=4;spacingRight=4;overflow=hidden;rotatable=0;points=[[0,0.5],[1,0.5]];portConstraint=eastwest;rounded=0;shadow=0;html=0;" parent="9Ri08BBr-EwWfyPE7lYP-138" vertex="1">
          <mxGeometry y="117" width="160" height="26" as="geometry" />
        </mxCell>
        <mxCell id="9Ri08BBr-EwWfyPE7lYP-145" value="Materiales" style="swimlane;fontStyle=2;align=center;verticalAlign=top;childLayout=stackLayout;horizontal=1;startSize=26;horizontalStack=0;resizeParent=1;resizeLast=0;collapsible=1;marginBottom=0;rounded=0;shadow=0;strokeWidth=1;" parent="1" vertex="1">
          <mxGeometry x="990" y="1197" width="159" height="156" as="geometry">
            <mxRectangle x="230" y="140" width="160" height="26" as="alternateBounds" />
          </mxGeometry>
        </mxCell>
        <mxCell id="9Ri08BBr-EwWfyPE7lYP-146" value="nombre" style="text;align=left;verticalAlign=top;spacingLeft=4;spacingRight=4;overflow=hidden;rotatable=0;points=[[0,0.5],[1,0.5]];portConstraint=eastwest;" parent="9Ri08BBr-EwWfyPE7lYP-145" vertex="1">
          <mxGeometry y="26" width="159" height="26" as="geometry" />
        </mxCell>
        <mxCell id="9Ri08BBr-EwWfyPE7lYP-148" value="descripción" style="text;align=left;verticalAlign=top;spacingLeft=4;spacingRight=4;overflow=hidden;rotatable=0;points=[[0,0.5],[1,0.5]];portConstraint=eastwest;" parent="9Ri08BBr-EwWfyPE7lYP-145" vertex="1">
          <mxGeometry y="52" width="159" height="26" as="geometry" />
        </mxCell>
        <mxCell id="9Ri08BBr-EwWfyPE7lYP-147" value="imagen" style="text;align=left;verticalAlign=top;spacingLeft=4;spacingRight=4;overflow=hidden;rotatable=0;points=[[0,0.5],[1,0.5]];portConstraint=eastwest;" parent="9Ri08BBr-EwWfyPE7lYP-145" vertex="1">
          <mxGeometry y="78" width="159" height="26" as="geometry" />
        </mxCell>
        <mxCell id="9Ri08BBr-EwWfyPE7lYP-149" value="esCocina" style="text;align=left;verticalAlign=top;spacingLeft=4;spacingRight=4;overflow=hidden;rotatable=0;points=[[0,0.5],[1,0.5]];portConstraint=eastwest;" parent="9Ri08BBr-EwWfyPE7lYP-145" vertex="1">
          <mxGeometry y="104" width="159" height="26" as="geometry" />
        </mxCell>
        <mxCell id="9Ri08BBr-EwWfyPE7lYP-150" value="Superficie" style="text;align=left;verticalAlign=top;spacingLeft=4;spacingRight=4;overflow=hidden;rotatable=0;points=[[0,0.5],[1,0.5]];portConstraint=eastwest;fontStyle=2" parent="9Ri08BBr-EwWfyPE7lYP-145" vertex="1">
          <mxGeometry y="130" width="159" height="26" as="geometry" />
        </mxCell>
      </root>
    </mxGraphModel>
  </diagram>
</mxfile>
